<svg xmlns="http://www.w3.org/2000/svg" viewBox="0 0 526 186" width="526" height="186" role="img" aria-label="eazip.ch">
  <title>eazip.ch</title>
  <defs>
    
    <linearGradient id="zg" x1="190.40" y1="0" x2="405.12" y2="0" gradientUnits="userSpaceOnUse">
      <stop offset="0%" stop-color="#d946ef"></stop>
      <stop offset="100%" stop-color="#f97316"></stop>
    </linearGradient>
  </defs>
  <path class="ea" d="M59.360 128.480L59.360 128.480Q47.520 128.480 38.480 123.440Q29.440 118.400 24.400 109.200Q19.360 100 19.360 87.520L19.360 87.520L19.360 85.600Q19.360 73.120 24.320 63.920Q29.280 54.720 38.240 49.680Q47.200 44.640 59.040 44.640L59.040 44.640Q70.720 44.640 79.360 49.840Q88 55.040 92.800 64.240Q97.600 73.440 97.600 85.600L97.600 85.600L97.600 92.480L39.840 92.480Q40.160 100.640 45.920 105.760Q51.680 110.880 60 110.880L60 110.880Q68.480 110.880 72.480 107.200Q76.480 103.520 78.560 99.040L78.560 99.040L95.040 107.680Q92.800 111.840 88.560 116.720Q84.320 121.600 77.280 125.040Q70.240 128.480 59.360 128.480ZM40 77.440L40 77.440L77.120 77.440Q76.480 70.560 71.600 66.400Q66.720 62.240 58.880 62.240L58.880 62.240Q50.720 62.240 45.920 66.400Q41.120 70.560 40 77.440ZM133.760 128.480L133.760 128.480Q125.280 128.480 118.560 125.520Q111.840 122.560 107.920 116.880Q104.000 111.200 104.000 103.040L104.000 103.040Q104.000 94.880 107.920 89.360Q111.840 83.840 118.800 81.040Q125.760 78.240 134.720 78.240L134.720 78.240L156.480 78.240L156.480 73.760Q156.480 68.160 152.960 64.560Q149.440 60.960 141.760 60.960L141.760 60.960Q134.240 60.960 130.560 64.400Q126.880 67.840 125.760 73.280L125.760 73.280L107.200 67.040Q109.120 60.960 113.360 55.920Q117.600 50.880 124.720 47.760Q131.840 44.640 142.080 44.640L142.080 44.640Q157.760 44.640 166.880 52.480Q176 60.320 176 75.200L176 75.200L176 104.800Q176 109.600 180.480 109.600L180.480 109.600L186.880 109.600L186.880 126.240L173.440 126.240Q167.520 126.240 163.680 123.360Q159.840 120.480 159.840 115.680L159.840 115.680L159.840 115.520L156.800 115.520Q156.160 117.440 153.920 120.560Q151.680 123.680 146.880 126.080Q142.080 128.480 133.760 128.480ZM137.280 112.160L137.280 112.160Q145.760 112.160 151.120 107.440Q156.480 102.720 156.480 94.880L156.480 94.880L156.480 93.280L136.160 93.280Q130.560 93.280 127.360 95.680Q124.160 98.080 124.160 102.400L124.160 102.400Q124.160 106.720 127.520 109.440Q130.880 112.160 137.280 112.160Z"></path>
  <path fill="url(#zg)" d="M265.600 126.240L198.720 126.240L198.720 102.240L242.240 66.080L242.240 63.520L200.320 63.520L200.320 46.880L264.320 46.880L264.320 70.880L220.800 107.040L220.800 109.600L265.600 109.600L265.600 126.240ZM298.240 126.240L278.080 126.240L278.080 46.880L298.240 46.880L298.240 126.240ZM288.160 37.600L288.160 37.600Q282.720 37.600 278.960 34.080Q275.200 30.560 275.200 24.800L275.200 24.800Q275.200 19.040 278.960 15.520Q282.720 12.000 288.160 12.000L288.160 12.000Q293.760 12.000 297.440 15.520Q301.120 19.040 301.120 24.800L301.120 24.800Q301.120 30.560 297.440 34.080Q293.760 37.600 288.160 37.600ZM334.400 158.240L314.240 158.240L314.240 46.880L334.080 46.880L334.080 56.480L336.960 56.480Q339.680 51.840 345.440 48.240Q351.200 44.640 361.920 44.640L361.920 44.640Q371.520 44.640 379.680 49.360Q387.840 54.080 392.800 63.200Q397.760 72.320 397.760 85.280L397.760 85.280L397.760 87.840Q397.760 100.800 392.800 109.920Q387.840 119.040 379.680 123.760Q371.520 128.480 361.920 128.480L361.920 128.480Q354.720 128.480 349.840 126.800Q344.960 125.120 342 122.480Q339.040 119.840 337.280 117.120L337.280 117.120L334.400 117.120L334.400 158.240ZM355.840 110.880L355.840 110.880Q365.280 110.880 371.440 104.880Q377.600 98.880 377.600 87.360L377.600 87.360L377.600 85.760Q377.600 74.240 371.360 68.240Q365.120 62.240 355.840 62.240L355.840 62.240Q346.560 62.240 340.320 68.240Q334.080 74.240 334.080 85.760L334.080 85.760L334.080 87.360Q334.080 98.880 340.320 104.880Q346.560 110.880 355.840 110.880Z"></path>
  <path class="ch" d="M424.397 127.181L424.397 127.181Q421.843 127.181 420.130 125.501Q418.416 123.821 418.416 121.200L418.416 121.200Q418.416 118.646 420.130 116.966Q421.843 115.286 424.397 115.286L424.397 115.286Q426.950 115.286 428.630 116.966Q430.310 118.646 430.310 121.267L430.310 121.267Q430.310 123.888 428.630 125.534Q426.950 127.181 424.397 127.181ZM453.763 127.181L453.763 127.181Q448.925 127.181 445.027 125.165Q441.130 123.149 438.878 119.318Q436.627 115.488 436.627 110.112L436.627 110.112L436.627 109.171Q436.627 103.795 438.878 99.965Q441.130 96.134 445.027 94.118Q448.925 92.102 453.763 92.102L453.763 92.102Q458.534 92.102 461.928 93.782Q465.322 95.462 467.405 98.386Q469.488 101.309 470.093 104.938L470.093 104.938L462.634 106.483Q462.365 104.400 461.357 102.686Q460.349 100.973 458.501 99.965Q456.653 98.957 453.965 98.957L453.965 98.957Q451.210 98.957 449.026 100.133Q446.842 101.309 445.598 103.661Q444.355 106.013 444.355 109.306L444.355 109.306L444.355 109.978Q444.355 113.270 445.598 115.589Q446.842 117.907 449.026 119.117Q451.210 120.326 453.965 120.326L453.965 120.326Q458.064 120.326 460.181 118.210Q462.298 116.093 462.835 112.733L462.835 112.733L470.294 114.480Q469.488 117.974 467.405 120.864Q465.322 123.754 461.928 125.467Q458.534 127.181 453.763 127.181ZM484.877 126.240L477.149 126.240L477.149 79.200L484.877 79.200L484.877 97.411L486.019 97.411Q486.557 96.269 487.766 95.126Q488.976 93.984 490.958 93.245Q492.941 92.506 495.965 92.506L495.965 92.506Q499.795 92.506 502.752 94.219Q505.709 95.933 507.355 99.024Q509.002 102.115 509.002 106.349L509.002 106.349L509.002 126.240L501.274 126.240L501.274 106.954Q501.274 102.922 499.291 100.939Q497.309 98.957 493.680 98.957L493.680 98.957Q489.581 98.957 487.229 101.678Q484.877 104.400 484.877 109.440L484.877 109.440L484.877 126.240Z"></path>
</svg>